<?xml version="1.0" standalone="no"?><!DOCTYPE svg PUBLIC "-//W3C//DTD SVG 1.1//EN" "http://www.w3.org/Graphics/SVG/1.1/DTD/svg11.dtd"><svg t="1616747955266" class="icon" viewBox="0 0 1024 1024" version="1.1" xmlns="http://www.w3.org/2000/svg" p-id="4209" xmlns:xlink="http://www.w3.org/1999/xlink" width="200" height="200"><defs><style type="text/css"></style></defs><path d="M1007.709091 407.272727l-467.781818-372.363636c-16.290909-11.636364-37.236364-11.636364-53.527273 0L18.618182 407.272727c-13.963636 11.636364-20.945455 30.254545-13.963637 48.872728 6.981818 18.618182 23.272727 30.254545 41.89091 30.254545h86.10909v472.436364c0 23.272727 18.618182 44.218182 44.218182 44.218181H372.363636c23.272727 0 44.218182-18.618182 44.218182-44.218181v-132.654546h190.836364v132.654546c0 23.272727 18.618182 44.218182 44.218182 44.218181h197.818181c16.290909 0 27.927273-6.981818 32.581819-13.963636 9.309091-9.309091 11.636364-20.945455 11.636363-27.927273V484.072727h86.109091c18.618182 0 34.909091-11.636364 41.890909-30.254545 6.981818-16.290909 0-34.909091-13.963636-46.545455zM702.836364 111.709091h146.618181v114.036364c0 11.636364 9.309091 20.945455 20.945455 20.945454s20.945455-9.309091 20.945455-20.945454v-116.363637c0-20.945455-16.290909-37.236364-37.236364-37.236363h-151.272727c-11.636364 0-20.945455 9.309091-20.945455 20.945454s9.309091 18.618182 20.945455 18.618182z" fill="#1296db" p-id="4210"></path></svg>