<?xml version="1.0" standalone="no"?><!DOCTYPE svg PUBLIC "-//W3C//DTD SVG 1.1//EN" "http://www.w3.org/Graphics/SVG/1.1/DTD/svg11.dtd"><svg t="1616747514905" class="icon" viewBox="0 0 1024 1024" version="1.1" xmlns="http://www.w3.org/2000/svg" p-id="3578" xmlns:xlink="http://www.w3.org/1999/xlink" width="200" height="200"><defs><style type="text/css"></style></defs><path d="M760.285867 1000.0384H579.7888a32.9728 32.9728 0 0 1-33.450667-33.450667V678.365867H443.050667v288.085333c0 18.978133-14.5408 33.450667-33.450667 33.450667H232.0384c-55.296 0-100.420267-45.056-100.420267-100.352V605.661867H112.64A78.2336 78.2336 0 0 1 34.133333 527.701333V527.018667c0-20.48 7.304533-39.3216 21.845334-53.8624l339.012266-359.424a146.773333 146.773333 0 0 1 206.6432-5.802667 11.400533 11.400533 0 0 0 5.870934 5.802667l339.080533 359.424c30.5152 30.583467 29.0816 80.0768-1.501867 110.592-14.5408 14.609067-34.884267 21.845333-55.296 21.845333h-29.0816v293.956267c0 55.296-45.056 100.488533-100.488533 100.488533l0.068267-0.068267z m-145.6128-66.901333h145.544533a35.362133 35.362133 0 0 0 34.952533-34.952534V572.279467c0-18.978133 14.5408-33.450667 33.450667-33.450667h62.532267a10.922667 10.922667 0 0 0 10.24-7.3728c1.501867-4.3008 1.501867-8.669867-2.935467-13.038933L558.011733 160.3584a78.6432 78.6432 0 0 0-112.0256-2.935467 3.140267 3.140267 0 0 0-2.935466 2.935467L103.970133 518.417067a11.4688 11.4688 0 0 0 0 15.906133c2.935467 2.935467 5.870933 2.935467 8.8064 2.935467h53.794134c18.909867 0 33.450667 14.609067 33.450666 33.450666v327.4752c0 18.909867 15.9744 34.884267 34.884267 34.884267h144.110933v-254.634667c0-37.819733 30.583467-66.901333 66.901334-66.901333h103.424c37.751467 0 66.901333 30.5152 66.901333 66.901333l-1.501867 254.634667z" fill="#323232" p-id="3579"></path></svg>